<svg width="21" height="20" viewBox="0 0 21 20" fill="none" xmlns="http://www.w3.org/2000/svg">
<path d="M16.2548 3.26764e-07H4.11463C3.57423 -0.000213003 3.03908 0.104031 2.53977 0.306773C2.04046 0.509516 1.58678 0.806783 1.20466 1.18158C0.822541 1.55639 0.519467 2.00138 0.312765 2.49112C0.106062 2.98086 -0.000217163 3.50576 3.33146e-07 4.03581V15.9459C4.70817e-05 16.4758 0.106526 17.0004 0.313353 17.4899C0.52018 17.9794 0.823304 18.4241 1.20541 18.7987C1.58751 19.1732 2.0411 19.4703 2.54028 19.6728C3.03945 19.8754 3.57442 19.9795 4.11463 19.9792H16.2574C17.3486 19.9792 18.3952 19.554 19.1669 18.7972C19.9385 18.0403 20.372 17.0138 20.372 15.9434V4.03581C20.3714 2.96518 19.9374 1.9386 19.1653 1.18179C18.3933 0.42498 17.3464 -0.000105765 16.2548 3.26764e-07Z" fill="url(#paint0_linear_84_1077)"/>
<path d="M10.0982 4.59023L10.5106 3.89095C10.5715 3.78732 10.6526 3.69645 10.7492 3.62355C10.8459 3.55064 10.9562 3.49712 11.074 3.46605C11.1917 3.43497 11.3146 3.42695 11.4355 3.44243C11.5564 3.45792 11.673 3.49661 11.7786 3.5563C11.8843 3.61599 11.9769 3.69551 12.0513 3.79031C12.1256 3.88512 12.1802 3.99336 12.2118 4.10885C12.2435 4.22433 12.2517 4.34481 12.2359 4.4634C12.2201 4.58199 12.1807 4.69637 12.1198 4.80001L8.14524 11.548H11.0199C11.9518 11.548 12.4738 12.6219 12.0689 13.3661H3.64104C3.39524 13.3661 3.1595 13.2703 2.98569 13.0998C2.81188 12.9294 2.71423 12.6981 2.71423 12.457C2.71423 12.216 2.81188 11.9847 2.98569 11.8143C3.1595 11.6438 3.39524 11.548 3.64104 11.548H6.0039L9.02877 6.40584L8.08413 4.79751C7.96123 4.58821 7.92813 4.33959 7.99211 4.10635C8.0561 3.87311 8.21193 3.67435 8.42532 3.5538C8.63871 3.43325 8.89219 3.40079 9.12998 3.46355C9.36778 3.52631 9.57042 3.67915 9.69332 3.88845L10.0982 4.59023ZM6.52332 14.3026L5.63216 15.8186C5.50926 16.0279 5.30662 16.1807 5.06882 16.2435C4.83103 16.3062 4.57755 16.2738 4.36416 16.1532C4.15077 16.0327 3.99494 15.8339 3.93095 15.6007C3.86697 15.3674 3.90007 15.1188 4.02297 14.9095L4.68498 13.7857C5.43356 13.5584 6.04209 13.7332 6.52332 14.3026ZM14.1975 11.553H16.6088C16.7305 11.553 16.851 11.5765 16.9634 11.6222C17.0759 11.6679 17.178 11.7348 17.2641 11.8192C17.3502 11.9037 17.4184 12.0039 17.465 12.1142C17.5116 12.2245 17.5356 12.3427 17.5356 12.462C17.5356 12.5814 17.5116 12.6996 17.465 12.8099C17.4184 12.9202 17.3502 13.0204 17.2641 13.1048C17.178 13.1893 17.0759 13.2562 16.9634 13.3019C16.851 13.3476 16.7305 13.3711 16.6088 13.3711H15.2695L16.1734 14.9095C16.2963 15.1188 16.3294 15.3674 16.2654 15.6007C16.2014 15.8339 16.0456 16.0327 15.8322 16.1532C15.6188 16.2738 15.3653 16.3062 15.1275 16.2435C14.8897 16.1807 14.6871 16.0279 14.5642 15.8186C13.0415 13.2287 11.9 11.2891 11.1396 9.9996C10.363 8.68597 10.918 7.36734 11.4655 6.9203C12.074 7.94424 12.9847 9.48847 14.1975 11.553Z" fill="white"/>
<defs>
<linearGradient id="paint0_linear_84_1077" x1="10.186" y1="3.26764e-07" x2="10.186" y2="19.9792" gradientUnits="userSpaceOnUse">
<stop stop-color="#18BFFB"/>
<stop offset="1" stop-color="#2072F3"/>
</linearGradient>
</defs>
</svg>
