<svg width="19" height="20" viewBox="0 0 19 20" fill="none" xmlns="http://www.w3.org/2000/svg">
<path d="M8.46994 9.56285L0.0546455 18.3607C0.327869 19.2896 1.20219 20 2.24044 20C2.67759 20 3.06011 19.8907 3.38798 19.6721L12.8962 14.2623L8.46994 9.56285Z" fill="#EA4335"/>
<path d="M16.9945 8.0328L12.8962 5.68307L8.30601 9.72679L12.9508 14.2623L17.0492 11.9672C17.7596 11.5847 18.2514 10.8197 18.2514 10C18.1967 9.18034 17.7049 8.41531 16.9945 8.0328Z" fill="#FBBC04"/>
<path d="M0.054645 1.63934C2.07639e-07 1.80328 0 2.02186 0 2.24044V17.8142C0 18.0328 2.07639e-07 18.1967 0.054645 18.4153L8.79781 9.83606L0.054645 1.63934Z" fill="#4285F4"/>
<path d="M8.52458 9.99999L12.8962 5.68306L3.44262 0.327869C3.11475 0.109289 2.67759 0 2.24044 0C1.20219 0 0.273225 0.710382 0.0546455 1.63934L8.52458 9.99999Z" fill="#34A853"/>
</svg>
